# xmcd
#
# Track frame offsets:
#       150
#       22193
#       28575
#       49505
#       57462
#       74719
#       90113
#       94661
#       131768
#       137231
#
# Disc length: 2050 seconds
#
# Revision: 0
# Processed by: cddbd v1.4PL0 Copyright (c) Steve Scherf et al.
# Submitted via: WhereIsIt 3.23
#
DISCID=8b08000a
DTITLE=Ten Years After - Stonedhenge
DYEAR=1900
DGENRE=
TTITLE0=Going To Try
TTITLE1=I Can't Live Without Lydia
TTITLE2=Woman Trouble
TTITLE3=Skoobly-Obbly-Doobob
TTITLE4=Here Me Calling
TTITLE5=A Sad Song
TTITLE6=Three Blind Mice
TTITLE7=No Title
TTITLE8=Faro
TTITLE9=Speed Kills
EXTD=
EXTT0=
EXTT1=
EXTT2=
EXTT3=
EXTT4=
EXTT5=
EXTT6=
EXTT7=
EXTT8=
EXTT9=
PLAYORDER=
